<?xml version="1.0" encoding="UTF-8" standalone="no"?>
<!DOCTYPE svg PUBLIC "-//W3C//DTD SVG 1.1//EN" "http://www.w3.org/Graphics/SVG/1.1/DTD/svg11.dtd">
<!-- Created with Vectornator (http://vectornator.io/) -->
<svg height="100%" stroke-miterlimit="10" style="fill-rule:nonzero;clip-rule:evenodd;stroke-linecap:round;stroke-linejoin:round;" version="1.1" viewBox="0 0 1024 1024" width="100%" xml:space="preserve" xmlns="http://www.w3.org/2000/svg" xmlns:vectornator="http://vectornator.io" xmlns:xlink="http://www.w3.org/1999/xlink">
<defs>
<clipPath id="TextBounds">
<rect height="1" width="0" x="286.761" y="332.903"/>
</clipPath>
<clipPath id="TextBounds_2">
<rect height="1" width="0" x="331.81" y="403.584"/>
</clipPath>
<clipPath id="TextBounds_3">
<rect height="1" width="0" x="359.771" y="458.73"/>
</clipPath>
</defs>
<g id="Layer-1" vectornator:layerName="Layer 1">
<path d="M114.947 27.2749L909.053 27.2749C957.473 27.2749 996.725 66.527 996.725 114.947L996.725 909.053C996.725 957.473 957.473 996.725 909.053 996.725L114.947 996.725C66.527 996.725 27.2749 957.473 27.2749 909.053L27.2749 114.947C27.2749 66.527 66.527 27.2749 114.947 27.2749Z" fill="#000000" fill-opacity="0" fill-rule="nonzero" opacity="1" stroke="#000000" stroke-linecap="butt" stroke-linejoin="miter" stroke-width="12"/>
<g fill="#000000" opacity="1" stroke="none"/>
<g fill="#000000" opacity="1" stroke="none"/>
<g fill="#000000" opacity="1" stroke="none"/>
<path d="M184.474 367.835C193.612 378.242 199.831 388.332 203.131 398.104C206.431 407.877 208.081 423.678 208.081 445.507L208.081 569.63C208.081 580.037 210.048 587.462 213.982 591.904C217.917 596.346 225.214 599.011 235.875 599.899C246.536 600.788 255.293 604.912 262.147 612.273C269 619.635 272.427 628.646 272.427 639.306C272.427 650.475 268.556 659.867 260.814 667.482C253.072 675.096 243.236 678.904 231.306 678.904C214.3 678.904 197.927 674.398 182.19 665.387C166.452 656.376 152.746 641.718 141.069 621.411C133.708 608.212 130.028 592.855 130.028 575.341L130.028 437.892C130.028 426.977 128.251 419.489 124.697 415.428C121.144 411.367 113.529 408.638 101.853 407.242C90.1765 405.846 81.229 401.721 75.0101 394.868C68.7913 388.014 65.6819 379.003 65.6819 367.835C65.6819 356.413 68.7913 347.275 75.0101 340.421C81.229 333.568 90.2399 329.443 102.043 328.047C113.846 326.651 121.017 324.303 123.555 321.003C127.87 315.927 130.028 308.058 130.028 297.397L130.028 167.182C130.028 139.261 140.181 115.083 160.487 94.65C180.794 74.2167 204.273 64 230.925 64C243.109 64 253.072 67.8075 260.814 75.4224C268.556 83.0373 272.427 92.429 272.427 103.598C272.427 114.005 269 122.889 262.147 130.25C255.293 137.611 246.409 141.799 235.494 142.814C224.58 143.83 217.726 146.114 214.934 149.668C210.365 154.998 208.081 162.867 208.081 173.274L208.081 297.397C208.081 314.911 206.367 328.428 202.941 337.946C199.514 347.465 193.359 357.428 184.474 367.835Z" fill="#db0000" fill-rule="nonzero" opacity="1" stroke="none"/>
<path d="M849.959 367.835C841.075 357.428 834.919 347.338 831.493 337.566C828.066 327.793 826.353 314.404 826.353 297.397L826.353 173.274C826.353 162.867 824.385 155.442 820.451 151C816.517 146.558 809.219 143.83 798.558 142.814C787.897 141.799 779.14 137.611 772.287 130.25C765.433 122.889 762.007 114.005 762.007 103.598C762.007 92.429 765.878 83.0373 773.619 75.4224C781.361 67.8075 791.197 64 803.127 64C820.134 64 836.506 68.5055 852.243 77.5165C867.981 86.5274 881.688 101.186 893.364 121.493C900.725 134.692 904.405 149.922 904.405 167.182L904.405 297.397C904.405 308.312 906.182 315.863 909.736 320.051C913.29 324.24 920.904 326.968 932.581 328.237C944.257 329.507 953.204 333.568 959.423 340.421C965.642 347.275 968.751 356.413 968.751 367.835C968.751 379.003 965.642 388.014 959.423 394.868C953.204 401.721 944.193 405.846 932.39 407.242C920.587 408.638 913.416 410.986 910.878 414.286C906.563 419.362 904.405 427.231 904.405 437.892L904.405 575.341C904.405 603.516 894.252 627.821 873.946 648.254C853.639 668.687 830.16 678.904 803.508 678.904C791.324 678.904 781.361 675.096 773.619 667.482C765.878 659.867 762.007 650.475 762.007 639.306C762.007 628.899 765.433 620.015 772.287 612.654C779.14 605.293 788.024 601.105 798.939 600.09C809.854 599.074 816.707 596.79 819.499 593.236C824.068 587.906 826.353 580.037 826.353 569.63L826.353 445.507C826.353 423.678 827.939 407.94 831.112 398.295C834.285 388.649 840.567 378.496 849.959 367.835Z" fill="#db0000" fill-rule="nonzero" opacity="1" stroke="none"/>
<path d="M397.647 142.113L397.647 600.53L444.86 600.53C463.643 600.53 477.033 604.084 485.028 611.191C493.024 618.298 497.022 627.69 497.022 639.366C497.022 651.042 493.024 660.498 485.028 667.732C477.033 674.966 463.643 678.583 444.86 678.583L319.594 678.583L319.594 64.0599L444.479 64.0599C463.262 64.0599 476.652 67.6769 484.648 74.9111C492.643 82.1453 496.641 91.6004 496.641 103.277C496.641 114.699 492.643 124.027 484.648 131.261C476.652 138.496 463.262 142.113 444.479 142.113L397.647 142.113Z" fill="#0c047d" fill-rule="nonzero" opacity="1" stroke="none"/>
<path d="M637.159 600.47L637.159 142.053L589.947 142.053C571.163 142.053 557.774 138.436 549.778 131.202C541.782 123.967 537.784 114.639 537.784 103.217C537.784 91.5406 541.782 82.0854 549.778 74.8512C557.774 67.6171 571.163 64 589.947 64L715.212 64L715.212 678.523L590.327 678.523C571.544 678.523 558.154 674.906 550.159 667.672C542.163 660.438 538.165 650.983 538.165 639.306C538.165 627.884 542.163 618.556 550.159 611.322C558.154 604.087 571.544 600.47 590.327 600.47L637.159 600.47Z" fill="#0c047d" fill-rule="nonzero" opacity="1" stroke="none"/>
<path d="M718.263 710.734L719.052 772.182C620.791 772.182 103.492 772.182 102.965 772.182L102.206 899.148C102.733 899.148 620.747 899.349 719.052 899.349L718.263 953.455L921.837 832.075L718.263 710.734Z" fill="#000000" fill-rule="nonzero" opacity="1" stroke="none"/>
<g opacity="1">
<path d="M537.913 161.655L537.913 212.455C537.913 218.846 536.848 223.926 534.718 227.695C531.44 233.539 526.702 238.155 520.502 241.542C514.302 244.928 507.788 246.622 500.96 246.622C492.166 246.622 480.176 242.907 464.991 235.479L464.991 207.866C464.991 203.824 465.769 200.943 467.326 199.222C468.883 197.501 470.917 196.641 473.43 196.641C475.888 196.641 477.895 197.501 479.452 199.222C481.009 200.943 481.787 203.824 481.787 207.866L481.787 224.335C489.489 227.995 496.071 229.825 501.534 229.825C504.429 229.825 507.433 229.156 510.547 227.818C513.66 226.479 516.009 224.882 517.593 223.024C519.177 221.167 520.215 219.337 520.707 217.535C520.98 216.551 521.116 214.203 521.116 210.488L521.116 161.655L500.714 161.655C496.672 161.655 493.791 160.876 492.07 159.32C490.35 157.763 489.489 155.728 489.489 153.215C489.489 150.703 490.35 148.668 492.07 147.111C493.791 145.554 496.672 144.776 500.714 144.776L547.745 144.858C551.788 144.858 554.669 145.623 556.39 147.152C558.11 148.682 558.971 150.703 558.971 153.215C558.971 155.728 558.11 157.763 556.39 159.32C554.669 160.876 551.788 161.655 547.745 161.655L537.913 161.655Z" fill="#146407" fill-rule="nonzero" opacity="1" stroke="none"/>
<path d="M487.277 357.466C485.802 359.214 484.614 360.334 483.713 360.826C482.812 361.317 481.705 361.563 480.394 361.563C477.827 361.563 475.765 360.703 474.208 358.982C472.652 357.262 471.873 354.408 471.873 350.42L471.873 339.113C471.873 335.071 472.652 332.189 474.208 330.469C475.765 328.748 477.827 327.888 480.394 327.888C482.361 327.888 484.013 328.407 485.352 329.445C486.69 330.482 487.714 332.217 488.424 334.647C489.134 337.078 489.872 338.731 490.636 339.605C492.221 341.298 495.034 343.019 499.076 344.766C503.118 346.514 507.542 347.388 512.349 347.388C519.833 347.388 525.978 345.64 530.785 342.145C533.844 340.014 535.373 337.392 535.373 334.279C535.373 332.203 534.636 330.25 533.161 328.42C531.686 326.59 529.283 325.075 525.951 323.873C523.766 323.054 518.877 321.934 511.284 320.514C502.107 318.82 495.17 316.772 490.473 314.368C485.775 311.965 482.061 308.578 479.329 304.208C476.598 299.839 475.233 295.114 475.233 290.034C475.233 282.004 478.592 274.971 485.311 268.935C492.029 262.899 500.769 259.881 511.53 259.881C515.845 259.881 519.846 260.359 523.534 261.315C527.221 262.271 530.566 263.732 533.571 265.699C535.756 263.568 537.94 262.503 540.125 262.503C542.583 262.503 544.591 263.364 546.148 265.084C547.704 266.805 548.483 269.659 548.483 273.647L548.483 286.265C548.483 290.307 547.704 293.188 546.148 294.909C544.591 296.629 542.583 297.49 540.125 297.49C538.05 297.49 536.247 296.862 534.718 295.605C533.516 294.677 532.615 292.819 532.014 290.034C531.413 287.248 530.648 285.254 529.72 284.052C528.136 281.977 525.759 280.229 522.591 278.808C519.423 277.388 515.763 276.678 511.612 276.678C505.549 276.678 500.755 278.085 497.232 280.898C493.709 283.711 491.947 286.647 491.947 289.706C491.947 291.782 492.671 293.789 494.119 295.728C495.566 297.667 497.683 299.183 500.469 300.276C502.326 301.04 507.556 302.269 516.159 303.963C524.763 305.656 531.372 307.513 535.988 309.534C540.603 311.555 544.441 314.723 547.5 319.039C550.559 323.354 552.088 328.489 552.088 334.443C552.088 342.745 549.166 349.382 543.321 354.353C535.564 360.908 525.677 364.185 513.66 364.185C509.017 364.185 504.497 363.625 500.1 362.506C495.703 361.386 491.428 359.706 487.277 357.466Z" fill="#146407" fill-rule="nonzero" opacity="1" stroke="none"/>
<path d="M559.072 430.298C559.072 445.21 554.333 457.623 544.856 467.537C535.379 477.452 524.413 482.409 511.959 482.409C500.761 482.409 490.656 478.285 481.643 470.036C470.5 459.822 464.928 446.576 464.928 430.298C464.928 414.02 470.5 400.746 481.643 390.477C490.656 382.229 500.761 378.105 511.959 378.105C524.413 378.105 535.379 383.062 544.856 392.976C554.333 402.89 559.072 415.331 559.072 430.298ZM542.275 430.298C542.275 420.083 539.189 411.63 533.016 404.939C526.844 398.247 519.825 394.902 511.959 394.902C504.148 394.902 497.156 398.261 490.984 404.98C484.811 411.698 481.725 420.138 481.725 430.298C481.725 440.458 484.811 448.883 490.984 455.575C497.156 462.266 504.148 465.612 511.959 465.612C519.825 465.612 526.844 462.28 533.016 455.616C539.189 448.952 542.275 440.512 542.275 430.298Z" fill="#146407" fill-rule="nonzero" opacity="1" stroke="none"/>
<path d="M492.254 524.833L492.254 575.633L498.317 575.633C502.359 575.633 505.24 576.411 506.961 577.968C508.682 579.525 509.542 581.56 509.542 584.072C509.542 586.53 508.682 588.538 506.961 590.094C505.24 591.651 502.359 592.43 498.317 592.43L476.276 592.43C472.234 592.43 469.353 591.651 467.632 590.094C465.911 588.538 465.051 586.503 465.051 583.99C465.051 581.587 465.898 579.593 467.591 578.009C469.284 576.425 471.906 575.633 475.457 575.633L475.457 509.921L472.835 509.921C468.793 509.921 465.911 509.142 464.191 507.585C462.47 506.029 461.61 503.994 461.61 501.481C461.61 498.969 462.47 496.934 464.191 495.377C465.911 493.82 468.793 493.042 472.835 493.042L492.254 493.124L535.188 560.475L535.188 509.921L529.125 509.921C525.082 509.921 522.201 509.142 520.48 507.585C518.76 506.029 517.899 503.994 517.899 501.481C517.899 498.969 518.76 496.934 520.48 495.377C522.201 493.82 525.082 493.042 529.125 493.042L551.165 493.124C555.207 493.124 558.089 493.889 559.809 495.418C561.53 496.948 562.39 498.969 562.39 501.481C562.39 503.939 561.544 505.96 559.85 507.544C558.157 509.129 555.562 509.921 552.066 509.921L552.066 592.43L535.434 592.43L492.254 524.833Z" fill="#146407" fill-rule="nonzero" opacity="1" stroke="none"/>
</g>
</g>
</svg>
